<svg width="400" height="400" viewBox="0 0 400 400" fill="none" xmlns="http://www.w3.org/2000/svg">
<circle cx="200" cy="200" r="200" fill="white"/>
<mask id="mask0" mask-type="alpha" maskUnits="userSpaceOnUse" x="0" y="0" width="400" height="400">
<circle cx="200" cy="200" r="200" fill="#F5F5F5"/>
</mask>
<g mask="url(#mask0)">
<path d="M17.9514 170.88C58.4514 172.392 60.5514 187.619 68.9514 240.46C77.3514 293.3 98.5514 282.409 134.451 311.552C170.351 340.695 188.951 391.72 160.451 418.947C131.951 446.174 149.951 449.401 88.4514 463.922C26.9514 478.443 50.9514 458.275 1.45143 421.972C-48.0486 385.67 -78.4486 378.308 -57.0486 270.712C-35.6486 163.115 17.9514 170.88 17.9514 170.88Z" fill="url(#paint0_linear)"/>
<path d="M251.241 465.752C248.713 461.672 246.426 457.423 243.791 453.46C238.713 445.843 232.257 439.096 224.849 433.746C220.566 430.642 215.803 427.875 212.726 423.545C209.649 419.216 208.567 413.741 207.964 408.428C207.044 400.368 207.108 392.2 208.098 384.175C209.387 373.627 206.742 366.724 202.756 357.275C199.148 348.828 195.92 336.565 203.977 329.471C207.854 326.078 213.297 325.221 217.605 322.465C225.742 317.29 228.632 306.36 236.318 300.593C243.048 295.612 252.563 295.492 259.951 299.282C271.102 304.999 276.034 317.757 278.118 329.501C279.313 336.079 278.204 340.174 277.2 346.254C276.164 352.652 279.476 358.307 282.794 363.576C287.1 370.456 291.452 377.357 295.758 384.237C300.256 391.426 304.936 399.196 304.392 407.7C303.987 414.661 300.094 420.928 297.922 427.531C294.262 438.833 297.861 449.768 297.364 461.007C296.965 470.297 297.573 478.935 287.203 481.714C278.077 484.17 268.404 484.273 260.903 477.773C256.992 474.451 254.032 470.229 251.241 465.752Z" fill="url(#paint1_linear)"/>
<path d="M209.249 -96.2448C257.619 -92.5574 261.988 -103.574 305.592 -71.3922C349.196 -39.2105 422.771 -83.0109 459.489 -24.0059C496.612 43.1187 410.586 56.3661 392.16 90.361C373.733 124.356 443.035 147.873 372.2 187.602C301.365 227.331 278.432 183.283 258.277 155.123C238.122 126.964 246.277 63.2577 197.426 62.6253C148.575 61.9929 128.301 56.382 136.13 -3.3756C143.959 -63.1332 209.249 -96.2448 209.249 -96.2448Z" fill="url(#paint2_linear)"/>
<path d="M177.02 268.647C159.294 266.818 153.32 259.08 142.056 237.338C130.792 215.597 90.414 214.395 87.8799 184.547C86.9452 151.667 125.885 166.804 141.014 158.776C156.142 150.748 132.221 126.188 170.563 128.226C208.906 130.265 208.921 151.511 211.234 166.366C213.546 181.22 196.25 202.375 216.586 213.92C236.922 225.466 244.196 232.192 227.897 251.993C211.597 271.795 177.02 268.647 177.02 268.647Z" fill="url(#paint3_linear)"/>
<path d="M309.943 259.132C283.943 301.132 320.776 340.299 342.443 354.632C337.942 355.799 342.841 360.032 398.441 367.632C454.041 375.232 489.275 268.465 499.941 214.132C480.275 161.132 441.141 75.3321 441.941 156.132C442.941 257.132 342.443 206.632 309.943 259.132Z" fill="url(#paint4_linear)"/>
<path d="M74.2488 5.5983C37.9959 -10.7302 39.1014 -20.3778 -4.7173 -14.3179C-48.536 -8.25799 -84.6108 -68.6739 -133.824 -40.5967C-186.462 -6.83141 -129.63 36.4703 -129.482 68.181C-129.335 99.8916 -188.314 89.6262 -152.641 146.035C-116.969 202.444 -83.4541 179.726 -58.0728 167.36C-32.6915 154.993 -13.975 105.92 21.4454 124.637C56.8657 143.354 73.6302 147.271 91.0566 101.168C108.483 55.0657 74.2488 5.5983 74.2488 5.5983Z" fill="url(#paint5_linear)"/>
</g>
<defs>
<linearGradient id="paint0_linear" x1="55.1793" y1="170.756" x2="55.1793" y2="468.667" gradientUnits="userSpaceOnUse">
<stop stop-color="#FECA42"/>
<stop offset="1" stop-color="#FFE49E"/>
</linearGradient>
<linearGradient id="paint1_linear" x1="289.07" y1="312.445" x2="221.746" y2="461.035" gradientUnits="userSpaceOnUse">
<stop stop-color="#FF6666"/>
<stop offset="1" stop-color="#FFA8A8"/>
</linearGradient>
<linearGradient id="paint2_linear" x1="280.047" y1="-108.833" x2="335.338" y2="202.145" gradientUnits="userSpaceOnUse">
<stop stop-color="#E9BEFA"/>
<stop offset="1" stop-color="#DC90F9"/>
</linearGradient>
<linearGradient id="paint3_linear" x1="144.107" y1="258.185" x2="190.265" y2="131.902" gradientUnits="userSpaceOnUse">
<stop stop-color="#D7DE4A"/>
<stop offset="1" stop-color="#F2FB4C"/>
</linearGradient>
<linearGradient id="paint4_linear" x1="400.471" y1="123" x2="400.471" y2="368.017" gradientUnits="userSpaceOnUse">
<stop stop-color="#FFCEAA"/>
<stop offset="1" stop-color="#FF9F5A"/>
</linearGradient>
<linearGradient id="paint5_linear" x1="28.1274" y1="-31.252" x2="-132.772" y2="170.127" gradientUnits="userSpaceOnUse">
<stop stop-color="#58EBFF"/>
<stop offset="1" stop-color="#00E0FF" stop-opacity="0"/>
</linearGradient>
</defs>
</svg>
