<svg width="27" height="30" viewBox="0 0 27 30" fill="none" xmlns="http://www.w3.org/2000/svg">
<g clip-path="url(#clip0)">
<path d="M15.6952 18.7317C15.6952 19.8292 14.7283 20.7804 13.5382 20.7804C13.3151 20.7804 13.1663 20.7804 13.0175 20.7073H12.9431C12.72 19.4634 12.125 18.2926 11.158 17.4146L10.3398 16.6829H23.282V1.82922H26.0341C26.6291 1.82922 27.0754 2.26825 27.0754 2.85361V17.7073C27.0754 18.2926 26.6291 18.7317 26.0341 18.7317H15.6952Z" fill="#59B9D8"/>
<path d="M6.99174 17.7073C6.99174 18.2926 6.99174 18.7317 6.99174 18.7317H1.04132C0.446281 18.7317 0 18.2926 0 17.7073V2.85361C0 2.26825 0.446281 1.82922 1.04132 1.82922H3.79339V16.6829H7.06612C6.99174 16.6829 6.99174 17.1951 6.99174 17.7073Z" fill="#59B9D8"/>
<path d="M13.5352 8.48781V3.36585C13.5352 1.09756 15.469 0 17.8492 0H23.279V16.6829H13.5352V8.48781Z" fill="white"/>
<path d="M9.14834 0H3.79297V9V16.6829H7.0657V11.561C7.0657 11.2683 7.28884 11.0488 7.58636 11.0488C8.33016 11.0488 8.99958 11.3415 9.52024 11.7805C10.0409 12.2195 10.3384 12.878 10.3384 13.6098V16.6829H13.6111V9V3.36585C13.5368 1.46341 11.6029 0 9.14834 0Z" fill="#EDEDED"/>
<path d="M8.33203 25.9023V29.9999H19.2659V25.9023H8.33203Z" fill="#59B9D8"/>
<path d="M12.9426 20.7074C13.0914 20.7805 13.3145 20.7805 13.4633 20.7805C14.6533 20.7805 15.6203 19.8293 15.6203 18.7318H20.6781L19.4137 24.7318C19.4137 24.9513 19.3393 25.0976 19.2649 25.3171C19.1905 25.5366 19.1905 25.683 19.1905 25.9025V25.9757H8.33103C8.33103 25.6098 8.25665 24.6586 8.03351 24.2927L7.28971 21.2927C7.14095 21 6.99219 20.6342 6.99219 20.2683V11.561C6.99219 11.2683 7.21533 11.0488 7.51285 11.0488C8.25665 11.0488 8.92607 11.3415 9.44673 11.7805C9.96739 12.2196 10.2649 12.8781 10.2649 13.6098V16.683L11.0831 17.4147C11.9757 18.3659 12.7195 19.4635 12.9426 20.7074Z" fill="white"/>
<path opacity="0.45" d="M15.0977 2.48779H21.5687V3.2195H15.0977V2.48779Z" fill="#CACACA"/>
<path opacity="0.45" d="M5.42969 2.48779H11.9008V3.2195H5.42969V2.48779Z" fill="#CACACA"/>
<path opacity="0.45" d="M15.0977 5.85376H21.5687V6.58547H15.0977V5.85376Z" fill="#CACACA"/>
<path opacity="0.45" d="M5.42969 5.85364H11.9008V6.58534H5.42969V5.85364Z" fill="#CACACA"/>
<path opacity="0.45" d="M15.0977 9.21948H21.5687V9.95119H15.0977V9.21948Z" fill="#CACACA"/>
<path opacity="0.45" d="M5.42969 9.21948H11.9008V9.95119H5.42969V9.21948Z" fill="#CACACA"/>
<path d="M19.1915 25.9023H13.7617V29.9999H19.1915V25.9023Z" fill="#20A3CF"/>
<path d="M15.6954 18.7316C15.6954 19.756 14.8773 20.6341 13.8359 20.7804V25.9023H19.2657V25.8292C19.2657 25.6097 19.2657 25.4633 19.3401 25.2438C19.4144 25.0243 19.4145 24.878 19.4888 24.6584L20.7533 18.6584H15.6954V18.7316Z" fill="#BAEEFF"/>
</g>
<defs>
<clipPath id="clip0">
<rect width="27" height="30" fill="white"/>
</clipPath>
</defs>
</svg>
