<svg width="20" height="32" viewBox="0 0 20 32" fill="none" xmlns="http://www.w3.org/2000/svg">
<g clip-path="url(#clip0)">
<path d="M10.001 14.1972C8.10316 14.1972 6.57031 12.6197 6.57031 10.7418C6.57031 8.86384 8.10316 7.28638 10.001 7.28638C11.8988 7.28638 13.4316 8.86384 13.4316 10.7418C13.4316 12.6197 11.8988 14.1972 10.001 14.1972Z" fill="#FFD1D1"/>
<path d="M10 14.1972C10 11.8685 10 9.46478 10 7.28638C11.8978 7.28638 13.4307 8.86384 13.4307 10.7418C13.4307 12.6197 11.8978 14.1972 10 14.1972Z" fill="#FFBFBF"/>
<path d="M15.475 14.723C14.3801 15.2488 13.2852 15.2488 13.2852 15.2488H6.71587C6.71587 15.2488 5.62098 15.2488 4.59908 14.7981C3.28521 14.1972 2.62828 13.2207 2.62828 11.7934C2.62828 9.38967 4.96405 7.51174 7.29981 5.70892C8.32171 4.88263 9.27061 4.13146 10.0005 3.30516C10.7305 4.13146 11.7524 4.88263 12.7013 5.70892C14.964 7.51174 17.3728 9.38967 17.3728 11.7934C17.3728 13.1455 16.7889 14.1221 15.475 14.723ZM13.8692 4.13146C12.5553 3.07981 11.3874 2.1784 10.8035 1.277L10.0005 0L9.19762 1.277C8.61368 2.1784 7.3728 3.15493 6.13193 4.13146C3.57718 6.15962 0.730469 8.41315 0.730469 11.7183C0.730469 13.8967 1.82536 15.6244 3.79616 16.4507C4.52609 16.7512 5.25602 16.9014 5.83996 16.9765L6.4239 27.1925H13.6502L14.2341 16.9765C14.7451 16.9014 15.475 16.7512 16.2779 16.4507C18.2487 15.5493 19.3436 13.8967 19.3436 11.7183C19.2706 8.41315 16.4239 6.15962 13.8692 4.13146Z" fill="#FFD1D1"/>
<path d="M13.8686 4.13146C12.5547 3.07981 11.3869 2.1784 10.8029 1.277L10 0V3.23005C10.7299 4.05634 11.7518 4.80751 12.7007 5.6338C14.9635 7.43662 17.3723 9.31455 17.3723 11.7183C17.3723 13.1455 16.7153 14.1221 15.4745 14.723C14.3796 15.2488 13.2847 15.2488 13.2847 15.2488H10V27.2676H13.5766L14.1606 17.0516C14.6715 16.9765 15.4015 16.8263 16.2044 16.5258C18.1752 15.6244 19.2701 13.9718 19.2701 11.7934C19.2701 8.41315 16.4234 6.15962 13.8686 4.13146Z" fill="#FFBFBF"/>
<path d="M10.0003 31.9999C7.44552 31.9999 4.81779 31.7746 2.26304 31.2487C1.46012 31.0985 0.803189 30.6478 0.438225 29.9718C0.000268908 29.2957 -0.145717 28.4694 0.0732616 27.7182C0.438225 26.2159 1.89808 25.3145 3.35793 25.6149C7.81049 26.4412 12.263 26.4412 16.5696 25.6149C18.0295 25.3145 19.4893 26.2159 19.8543 27.7182C19.9273 27.9436 19.9273 28.1689 19.9273 28.3943C19.9273 28.9201 19.7813 29.4459 19.4893 29.8966C19.0514 30.5727 18.3944 31.0234 17.6645 31.1736C15.1828 31.7746 12.628 31.9999 10.0003 31.9999Z" fill="#FFADAD"/>
<path d="M10 31.9999C10 29.2957 10 28.1689 10 26.291C12.1898 26.291 14.4526 26.0656 16.6423 25.6149C18.1022 25.3145 19.562 26.2159 19.927 27.7182C20 27.9436 20 28.1689 20 28.3943C20 28.9201 19.854 29.4459 19.562 29.8966C19.1241 30.5727 18.4672 31.0234 17.7372 31.1736C15.1825 31.7746 12.6277 31.9999 10 31.9999Z" fill="#FF9191"/>
</g>
<defs>
<clipPath id="clip0">
<rect width="20" height="32" fill="white"/>
</clipPath>
</defs>
</svg>
