<svg width="86" height="79" viewBox="0 0 86 79" fill="none" xmlns="http://www.w3.org/2000/svg">
<path fill-rule="evenodd" clip-rule="evenodd" d="M0.368308 70.0394C0 69.308 0 68.5765 0 67.845V50.8381C2.20985 48.8265 5.34047 47.5464 8.47109 47.5464C15.2848 47.5464 20.6253 52.8496 21.1777 59.433C21.9143 59.2501 22.651 59.2501 23.3876 59.2501C28.3597 59.2501 32.7794 61.9931 35.1734 66.0163C37.3833 64.5533 39.9615 63.639 42.7238 63.639C44.5653 63.639 46.4069 64.0047 48.0642 64.7362C51.0107 60.1644 55.9829 57.0556 61.8758 57.0556C64.0856 57.0556 66.2955 57.6043 68.137 58.3357C71.636 53.0325 78.818 50.1066 86 51.5695V67.845C86 74.0626 81.0278 79.0001 74.9508 79.0001H11.0493C5.70878 79.0001 1.28908 75.1598 0.368308 70.0394Z" fill="#70D4F5"/>
<path d="M62.4266 36.7566L56.3495 46.8145L53.0348 52.4834H60.2168L40.3281 76.0737L47.6943 56.1409H40.5123L43.6429 46.9973L47.1418 36.7566H62.4266Z" fill="#D1F4FF"/>
<path d="M69.9785 23.773C74.5823 25.4189 77.8971 29.8078 77.8971 34.9281C77.8971 41.5115 72.5566 46.9976 65.9271 46.9976H56.5352L62.4282 36.9397H47.1434L43.6444 46.9976H22.835C14.5481 46.9976 7.73438 40.2314 7.73438 32.0022C7.73438 24.8703 12.7065 18.8355 19.5202 17.3726V17.1897C19.5202 7.86332 27.2547 0.182768 36.6466 0.182768C44.7494 -0.000102073 51.5631 5.66888 53.4046 13.1666C55.062 12.2522 56.9035 11.7036 58.9292 11.7036C65.1905 11.7036 70.1626 16.6411 70.1626 22.8587C69.9785 23.2244 69.9785 23.4073 69.9785 23.773Z" fill="#B5EDFF"/>
<path d="M69.9804 23.7731C74.5842 25.419 77.899 29.8079 77.899 34.9282C77.899 41.5116 72.5585 46.9977 65.929 46.9977H56.5371L62.4301 36.9398H47.1453L43.6463 46.9977H34.0703V0.18287C34.8069 0 35.7277 0 36.6485 0C44.7513 0 51.565 5.66898 53.4065 13.1667C55.0639 12.2523 56.9054 11.7037 58.9311 11.7037C65.1924 11.7037 70.1645 16.6412 70.1645 22.8588C69.9804 23.2245 69.9804 23.4074 69.9804 23.7731Z" fill="white"/>
</svg>
