<svg width="74" height="87" viewBox="0 0 74 87" fill="none" xmlns="http://www.w3.org/2000/svg">
<g clip-path="url(#clip0)">
<path fill-rule="evenodd" clip-rule="evenodd" d="M17.87 37.4962C13.245 49.5034 14.5064 56.0337 25.0177 53.5059C32.3757 55.6124 41.6257 55.1911 45.8302 60.8787C46.8814 63.1959 48.5632 65.0918 52.5575 64.2492C56.9723 63.1959 58.2336 64.8812 59.0746 67.1984C60.9666 70.5688 63.4893 71.4114 66.853 68.8836C69.3757 66.7771 71.8984 67.409 74.2109 70.1475C68.3246 52.8739 57.1825 42.9732 44.5689 35.3896C35.5291 36.2323 26.6996 36.8642 17.87 37.4962Z" fill="#EBB11D"/>
<path fill-rule="evenodd" clip-rule="evenodd" d="M55.9183 52.2419C55.9183 52.2419 56.1285 52.2419 55.9183 52.2419L55.2876 50.7673C54.8672 49.9247 55.2876 49.0821 55.9183 48.6608C56.7592 48.2395 57.6001 48.6608 58.0206 49.2928C59.0717 51.61 61.174 54.9804 61.174 57.7189C61.174 60.6681 58.6513 63.1959 55.7081 63.1959C52.7649 63.1959 50.2422 60.6681 50.2422 57.7189C50.4524 54.7698 52.9751 52.2419 55.9183 52.2419Z" fill="#FFE299"/>
<path d="M18.2908 37.9176C10.9329 33.4939 6.30788 27.3849 3.78516 18.9588C5.88743 18.1162 7.9897 17.4842 10.092 16.6416C12.4045 23.3825 16.1886 28.4382 22.0749 32.4406C27.7511 32.6513 33.217 32.8619 38.8931 33.0726C47.7227 36.4431 55.0806 42.3414 58.8647 51.1888C57.3931 52.4527 55.5011 53.0847 53.1886 52.8741C51.2965 49.5036 46.6715 45.0799 43.5181 42.9733C43.0977 47.3971 42.6772 51.8208 42.2568 56.4552C37.0011 57.9297 31.5352 57.7191 26.2795 56.4552C23.5465 50.1356 21.0238 44.0266 18.2908 37.9176Z" fill="#FEFEFF"/>
<path fill-rule="evenodd" clip-rule="evenodd" d="M10.0938 80.0483V86.9999H58.8665V83.6295L56.9744 80.4696L10.0938 80.0483Z" fill="#B8880E"/>
<path fill-rule="evenodd" clip-rule="evenodd" d="M2.73438 71.6221V74.7819L10.0923 86.9998V83.6293L2.73438 71.6221Z" fill="#C4910F"/>
<path fill-rule="evenodd" clip-rule="evenodd" d="M2.73438 71.6221H51.5071L58.8651 83.6293H10.0923L2.73438 71.6221Z" fill="#EBB11D"/>
<path fill-rule="evenodd" clip-rule="evenodd" d="M26.2773 56.2441L29.0103 76.0456L32.1637 77.0989L33.0046 60.4572H36.3682L43.0955 77.0989L46.4592 76.0456L42.2546 56.2441H26.2773Z" fill="#C4910F"/>
<path fill-rule="evenodd" clip-rule="evenodd" d="M32.1658 77.0992V79.2057H22.2852L22.4954 78.1524L29.0124 76.0459L32.1658 77.0992Z" fill="#8A6300"/>
<path fill-rule="evenodd" clip-rule="evenodd" d="M43.093 77.0992L42.8828 79.2057H52.9737L52.7635 78.1524L46.4567 76.0459L43.093 77.0992Z" fill="#8A6300"/>
<path fill-rule="evenodd" clip-rule="evenodd" d="M22.4922 32.4404L24.5945 38.9707L29.6399 34.9683L33.8445 40.8666L38.049 34.7576L22.4922 32.4404Z" fill="#EDEDED"/>
<path fill-rule="evenodd" clip-rule="evenodd" d="M32.5857 3.7914L39.1028 4.84467C44.3584 5.68728 47.7221 10.743 46.4607 16.0093L43.938 27.8059C42.8868 32.8616 37.6312 36.4427 32.5857 35.6001L26.0687 34.5468C20.813 33.7042 17.4493 28.6485 18.7107 23.3822L21.0232 11.3749C22.2846 6.31924 27.33 2.73813 32.5857 3.7914Z" fill="#FFE299"/>
<path fill-rule="evenodd" clip-rule="evenodd" d="M25.6472 25.2783C25.2268 33.7045 32.1643 34.9684 34.8972 27.5955C31.3233 27.8062 28.1699 26.9636 25.6472 25.2783Z" fill="#FEFEFF"/>
<path fill-rule="evenodd" clip-rule="evenodd" d="M21.4442 10.5327C28.1715 17.063 36.3704 20.2228 45.6204 20.2228C45.1999 22.3293 44.7795 24.4359 44.359 26.5424C40.9954 26.7531 37.842 26.3317 35.109 24.6465C33.0068 21.2761 29.8533 20.8547 26.2795 21.6974C23.1261 20.6441 21.0238 18.9589 19.9727 16.6417C20.3931 14.3245 21.0238 12.2179 21.4442 10.5327Z" fill="#C4910F"/>
<path fill-rule="evenodd" clip-rule="evenodd" d="M38.6825 21.4863C39.3132 21.4863 39.9439 22.1183 39.9439 22.7503C39.9439 23.5929 39.3132 24.0142 38.4723 24.0142C37.8416 24.0142 37.2109 23.3822 37.2109 22.7503C37.4212 22.1183 38.0518 21.4863 38.6825 21.4863Z" fill="#8A6300"/>
<path fill-rule="evenodd" clip-rule="evenodd" d="M29.4315 38.5493C29.8519 38.5493 30.0621 38.76 30.0621 39.1813C30.0621 39.6026 29.8519 39.8132 29.4315 39.8132C29.011 39.8132 28.8008 39.6026 28.8008 39.1813C28.8008 38.76 29.011 38.5493 29.4315 38.5493ZM31.1133 46.5542C31.5337 46.5542 31.744 46.7648 31.744 47.1861C31.744 47.6074 31.5337 47.8181 31.1133 47.8181C30.6928 47.8181 30.4826 47.3968 30.4826 47.1861C30.4826 46.9755 30.6928 46.5542 31.1133 46.5542ZM32.1644 51.8205C32.5849 51.8205 32.7951 52.0312 32.7951 52.4525C32.7951 52.8738 32.5849 53.0844 32.1644 53.0844C31.744 53.0844 31.5337 52.8738 31.5337 52.4525C31.5337 52.2418 31.9542 51.8205 32.1644 51.8205ZM31.744 49.2927C32.1644 49.2927 32.3746 49.5033 32.3746 49.9246C32.3746 50.3459 32.1644 50.5566 31.744 50.5566C31.3235 50.5566 31.1133 50.3459 31.1133 49.9246C31.1133 49.5033 31.3235 49.2927 31.744 49.2927ZM30.4826 43.8157C30.9031 43.8157 31.1133 44.0263 31.1133 44.4476C31.1133 44.8689 30.9031 45.0796 30.4826 45.0796C30.0621 45.0796 29.8519 44.8689 29.8519 44.4476C29.8519 44.0263 30.0621 43.8157 30.4826 43.8157ZM30.0621 41.0772C30.4826 41.0772 30.6928 41.2878 30.6928 41.7091C30.6928 42.1304 30.2724 42.3411 30.0621 42.3411C29.6417 42.3411 29.4315 42.1304 29.4315 41.7091C29.4315 41.2878 29.6417 41.0772 30.0621 41.0772Z" fill="#EBB11D"/>
<path fill-rule="evenodd" clip-rule="evenodd" d="M25.8622 16.8521C26.4929 16.8521 27.1236 17.484 27.1236 18.116C27.1236 18.7479 26.4929 19.3799 25.652 19.3799C25.0213 19.3799 24.3906 18.7479 24.3906 18.116C24.6009 17.484 25.2315 16.8521 25.8622 16.8521Z" fill="#8A6300"/>
<path fill-rule="evenodd" clip-rule="evenodd" d="M27.9557 5.47679C31.95 15.7988 38.6773 18.3267 45.6148 19.8012C45.1943 22.1184 44.5637 24.4356 44.1432 26.7528C45.6148 24.8569 46.6659 22.7504 47.2966 20.2226C47.7171 20.2226 48.1375 20.2226 48.558 20.0119C53.3932 9.26856 44.9841 1.89568 31.1091 0.210449C29.4273 0.210449 28.7966 1.05306 28.1659 2.52764C26.0636 1.47437 23.9614 0.421103 22.4898 2.94895C19.1261 9.05791 19.9671 12.4284 20.1773 16.2201C21.6489 10.5325 24.3818 7.16202 27.9557 5.47679Z" fill="#8A6300"/>
<path fill-rule="evenodd" clip-rule="evenodd" d="M25.6484 11.3749L30.2734 10.9536L30.4837 12.6388L25.6484 12.8495V11.3749Z" fill="#8A6300"/>
<path fill-rule="evenodd" clip-rule="evenodd" d="M5.46591 8.4262C5.67614 8.4262 5.67614 8.4262 5.46591 8.4262L4.83523 6.74097C4.41477 5.89836 4.83523 5.05574 5.46591 4.63443C6.30682 4.21313 7.14773 4.63443 7.56818 5.26639C8.61932 7.58359 10.7216 10.954 10.7216 13.6925C10.7216 16.6417 8.19886 19.1695 5.25568 19.1695C2.52273 19.3802 0 16.8524 0 13.9032C0 10.954 2.52273 8.4262 5.46591 8.4262Z" fill="#FFE299"/>
</g>
<defs>
<clipPath id="clip0">
<rect width="74" height="87" fill="white"/>
</clipPath>
</defs>
</svg>
