<svg width="81" height="87" viewBox="0 0 81 87" fill="none" xmlns="http://www.w3.org/2000/svg">
<g clip-path="url(#clip0)">
<path fill-rule="evenodd" clip-rule="evenodd" d="M43.5803 67.005C42.9425 67.005 42.0922 66.7923 41.4544 66.5795C41.4544 65.9414 42.0922 65.516 42.5173 65.516C43.1551 65.516 43.5803 65.9414 43.5803 66.5795C43.5803 66.7923 43.5803 67.005 43.5803 67.005ZM52.7221 67.2177C51.2339 67.4304 49.9583 67.4304 48.4701 67.4304C48.6827 66.5796 49.7457 65.9414 50.5961 65.9414C51.6591 65.7287 52.5095 66.3668 52.7221 67.2177ZM25.2969 59.7727C25.7221 59.7727 25.9347 59.56 26.3599 59.56C27.6355 59.56 28.911 60.1981 29.5488 61.2617C29.974 59.3473 31.6748 58.071 33.5882 58.071C34.0134 58.071 34.4386 58.071 34.6512 58.2837C34.8638 56.1566 36.7772 54.6676 38.9032 54.6676C40.3914 54.6676 41.667 55.5184 42.5173 56.582C43.3677 55.7311 44.4307 55.3057 45.7063 55.3057C47.1945 55.3057 48.4701 55.9439 49.3205 57.0074C50.1709 55.093 52.0843 53.604 54.2103 53.604C56.974 53.604 59.3126 55.7311 59.5252 58.2837C59.7378 58.2837 59.9504 58.2837 60.3756 58.2837C61.6512 58.2837 62.7142 58.9219 63.352 59.7727C63.9898 59.1346 65.0528 58.9219 66.1158 58.9219C67.8166 58.9219 69.0922 59.7727 69.9426 61.049C66.7536 62.9634 63.352 64.4524 59.7378 65.516C58.4622 65.3033 57.3992 64.4524 56.974 63.3888C56.1236 63.8143 55.2733 64.027 54.4229 64.027C52.7221 64.027 51.0213 63.1761 50.1709 61.6871C49.5331 63.3888 47.8323 64.4524 45.9189 64.4524C44.2181 64.4524 42.5174 63.3888 41.667 61.8998C40.8166 62.538 39.9662 62.7507 39.1158 62.7507C38.6906 62.7507 38.478 62.7507 38.0528 62.7507C37.8402 63.8143 37.415 64.6651 36.7772 65.3033C32.5252 64.2397 28.4859 62.3253 25.2969 59.7727Z" fill="#F27F2E"/>
<path fill-rule="evenodd" clip-rule="evenodd" d="M70.7922 0.638092C29.5481 -5.10519 38.4773 34.2469 58.4615 23.3985C67.8159 18.2934 65.6899 3.8288 70.7922 0.638092Z" fill="#FF7B1C"/>
<path fill-rule="evenodd" clip-rule="evenodd" d="M18.4961 20.8457C49.5355 9.14641 48.8977 38.5009 32.9528 34.0339C24.874 31.9068 23.3859 22.122 18.4961 20.8457Z" fill="#FF7B1C"/>
<path fill-rule="evenodd" clip-rule="evenodd" d="M45.9215 41.6919H45.2837C42.9452 25.3129 31.4648 24.0366 31.4648 24.0366C39.7562 25.3129 45.2837 31.2689 45.9215 41.6919Z" fill="#FFF1CC"/>
<path fill-rule="evenodd" clip-rule="evenodd" d="M69.3065 31.2689C43.7946 21.9094 44.645 45.9461 57.6135 42.1173C63.9915 40.2028 65.4797 32.3324 69.3065 31.2689Z" fill="#FF7B1C"/>
<path fill-rule="evenodd" clip-rule="evenodd" d="M45.2852 49.775L45.923 49.9877C50.6001 33.396 62.5056 33.396 62.7182 33.396C54.0017 33.6087 47.4111 39.352 45.2852 49.775Z" fill="#FFF1CC"/>
<path fill-rule="evenodd" clip-rule="evenodd" d="M63.3551 4.89258C41.2448 11.274 47.1976 41.9048 47.6228 58.4965L44.859 59.3473C44.2212 43.8192 40.3944 8.72143 63.3551 4.89258Z" fill="#FFF1CC"/>
<path fill-rule="evenodd" clip-rule="evenodd" d="M27.4219 61.2613C28.4849 61.2613 29.5479 61.8995 30.1857 62.7503C30.6109 61.0486 32.3116 59.7723 34.225 59.7723C34.6502 59.7723 34.8628 59.7723 35.288 59.9851C35.5006 57.8579 37.2014 56.3689 39.3274 56.3689C40.8156 56.3689 42.0912 57.0071 42.729 58.2833C43.5794 57.4325 44.6424 57.0071 45.9179 57.0071C47.4061 57.0071 48.6817 57.6452 49.5321 58.7088C50.1699 56.7944 52.0833 55.5181 54.2093 55.5181C56.7605 55.5181 59.099 57.4325 59.3116 60.1978C59.5242 60.1978 59.7368 60.1978 59.9494 60.1978C61.225 60.1978 62.288 60.8359 62.9258 61.6868C63.5636 61.0486 64.6266 60.8359 65.477 60.8359C66.7526 60.8359 67.8156 61.2613 68.4534 62.1122C62.5006 65.5156 55.6975 67.43 48.4691 67.43C40.8156 67.43 33.5872 65.0902 27.4219 61.2613Z" fill="#DB6E00"/>
<path fill-rule="evenodd" clip-rule="evenodd" d="M36.3543 55.0931C42.9449 57.0075 55.4882 59.1346 55.4882 59.1346C55.4882 59.1346 54.8504 63.6016 51.0236 64.4525C47.1969 65.3033 37.2047 63.3889 37.2047 63.3889C37.2047 63.3889 35.5039 65.3033 38.6929 65.7288C41.8819 66.3669 57.6142 65.9415 57.6142 65.9415C57.6142 65.9415 73.7717 58.2838 76.5354 57.2202C79.2992 56.1566 81 58.7092 81 58.7092C81 58.7092 62.2913 73.3865 60.5906 74.6627C58.8898 76.1517 29.9764 78.7043 29.9764 78.7043L21.4724 79.5552L12.1181 87.0002C7.22835 83.1713 3.18898 78.7043 0 73.5992L13.1811 63.8143C18.0709 55.7312 29.5512 53.1786 36.3543 55.0931Z" fill="#FFCC99"/>
<path fill-rule="evenodd" clip-rule="evenodd" d="M78.4506 60.8363C73.3483 64.8779 62.0806 73.8119 60.5924 74.8755C58.8916 76.1517 29.9782 78.7043 29.9782 78.7043L21.4743 79.5552L12.1199 87.0002C11.9073 86.7874 11.4821 86.5747 11.2695 86.362C16.3719 82.3204 22.1121 77.6407 21.6869 78.0662C21.2617 78.2789 57.1908 75.5136 59.9546 74.0246C62.931 72.5356 76.5372 61.8999 77.175 61.2618C77.8128 60.1982 78.4506 60.8363 78.4506 60.8363Z" fill="#EE860F"/>
<path fill-rule="evenodd" clip-rule="evenodd" d="M50.3861 58.709L49.9609 60.4107L53.7877 60.6234C54.0003 60.4107 54.2129 59.9853 54.2129 59.3471L50.3861 58.709Z" fill="#FFF1CC"/>
<path fill-rule="evenodd" clip-rule="evenodd" d="M78.0234 59.9851L78.4486 60.4105L80.5746 58.9215C80.7872 58.7088 80.1494 58.4961 80.1494 58.4961L78.0234 59.9851Z" fill="#FEFEFE" stroke="#FFF1CC" stroke-width="0.2268" stroke-miterlimit="10"/>
</g>
<defs>
<clipPath id="clip0">
<rect width="81" height="87" fill="white"/>
</clipPath>
</defs>
</svg>
