<svg width="78" height="85" viewBox="0 0 78 85" fill="none" xmlns="http://www.w3.org/2000/svg">
<g clip-path="url(#clip0)">
<path d="M43.2036 47.8737C42.2262 36.7357 40.6622 24.6208 37.9254 18.3679L36.5 16.5004C35.718 16.1095 34.391 15.6088 34 15.9996L33.5 16.9995C36.4323 23.8386 37.5344 36.9311 37.5344 48.2645C38.5119 47.6783 39.4893 47.4829 40.6622 47.4829C41.4442 47.2874 42.4216 47.4828 43.2036 47.8737Z" fill="#FCD4CA"/>
<path d="M42.2239 69.563C42.8103 69.563 43.5923 69.563 44.1787 69.3676C44.1787 66.0458 43.9833 60.1837 43.5923 53.54H37.3366C37.1412 60.5745 36.7502 66.632 36.5547 69.3676C36.7502 69.3676 37.1412 69.3676 37.3366 69.3676C39.096 69.3676 40.6599 69.3676 42.2239 69.563Z" fill="#FCD4CA"/>
<path d="M37.3398 69.3677C38.9038 69.3677 40.4677 69.3677 42.0316 69.5631C42.0316 69.5631 42.0316 69.5631 42.2271 69.5631C40.6632 69.3677 39.0992 69.3677 37.3398 69.3677Z" fill="#FFB996"/>
<path d="M42.0277 69.5635C32.0578 70.3452 23.8473 74.2532 19.9375 79.5291C20.524 79.9199 21.1104 80.5061 22.2834 80.5061C24.4337 80.5061 24.5451 80 26.5 80C28.6504 80 28.539 80.5061 30.4939 80.5061C32.6443 80.5061 32.6443 78.9429 34.5992 78.9429C36.7495 78.9429 36.7495 80.5061 38.7044 80.5061C40.6593 80.5061 40.8548 78.9429 42.8097 78.9429C44.9601 78.9429 44.9601 80.5061 46.9149 80.5061C49.0653 80.5061 49.0653 78.9429 51.0202 78.9429C53.1706 78.9429 53.1706 80.5061 55.1255 80.5061C57.2758 80.5061 57.2758 78.9429 59.2307 78.9429C61.3811 78.9429 61.3811 80.5061 63.336 80.5061C65.4864 80.5061 65.4864 78.9429 67.4413 78.9429C69.5916 78.9429 69.5916 80.5061 71.5465 80.5061C71.742 80.5061 71.9375 80.5061 72.133 80.5061C68.0277 74.0578 58.8158 69.5 46.5 69.5C45.9135 69.5 44.1781 69.5635 43.5916 69.5635C43.5916 69.3681 42.8097 69.3681 42.0277 69.5635Z" fill="#EC6779"/>
<path d="M10.5 79.3336C8.54511 79.3336 7.81993 80.3106 5.66955 80.3106C4.8876 80.3106 4.49662 80.1152 3.91016 79.7244L4.49662 79.1382L5.47407 78.1612C6.25602 77.575 7.23346 76.7934 8.21091 76.2072C8.4064 76.2072 8.4064 76.0118 8.60189 76.0118C14.2711 72.4945 22.8726 69.9543 32.647 69.3681C35.9646 69.0703 43.4313 69.3323 47 69.5002C37.0301 70.2819 24.4098 74.2243 20.5 79.5001C20.109 79.1093 19.782 79.7244 19 79.7244C17.0451 79.7244 17.6504 80.5001 15.5 80.5001C13.5451 80.5001 12.4549 79.3336 10.5 79.3336Z" fill="#CA495A"/>
<path d="M37.9268 18.1719L36.1674 16.8041C35.6593 16.5357 34.4788 16.1991 33.8215 16.9995L12.7088 42.5972C12.7088 42.5972 12.1223 16.9995 33.2351 15.8271L6.45312 13.2869C16.814 2.93054 28.1524 9.76962 32.8441 13.4823C27.1749 3.32134 20.3328 -0.195899 20.3328 -0.195899C29.3253 -0.782106 33.6261 3.32134 35.3855 7.8156C37.3403 3.12594 41.8366 -0.977508 50.2426 1.36732C50.2426 1.36732 42.814 4.10295 36.9494 13.8731C41.8366 9.96502 53.3704 2.53973 63.9268 13.0915L36.9494 15.6317C41.0546 15.8271 49.2652 16.9995 55.1298 22.2754C56.0337 22.8957 57.8523 25.2695 58.6486 26.3788C60.408 29.3099 61.5809 33.0225 61.5809 37.7122L37.9268 18.1719Z" fill="#EC6779"/>
<path d="M51.6094 26.575H58.8425H68.0304C68.0304 23.2532 65.2936 20.5176 61.9703 20.5176C60.0154 20.5176 58.4515 21.4946 57.2785 22.8624C56.8876 22.667 56.3011 22.667 55.9101 22.667C55.7146 22.667 55.7146 22.667 55.5192 22.667C53.1733 22.667 51.6094 24.4256 51.6094 26.575Z" fill="white"/>
<path d="M30.4962 33.0234C28.7368 33.0234 27.3684 33.805 26.3909 34.9775C26 34.7821 25.609 34.7821 25.218 34.7821C23.2631 34.7821 21.6992 36.3453 21.6992 38.2993H35.9699C35.7744 35.5637 33.4285 33.0234 30.4962 33.0234Z" fill="white"/>
<path d="M46.9168 53.54C46.9168 50.9997 45.3529 48.8503 43.2025 47.8733C42.4206 47.4825 41.4431 47.2871 40.4657 47.2871C39.2927 47.2871 38.3153 47.6779 37.3378 48.0687C36.7514 48.4595 35.9694 49.0457 35.5784 49.6319C35.1875 49.4365 34.601 49.4365 34.21 49.4365C32.8416 49.4365 31.6687 50.0227 30.8867 51.1952C31.6687 51.9768 32.4506 52.7584 33.0371 53.7354H37.3378H43.5935H46.9168V53.54Z" fill="white"/>
<path d="M57.471 58.2295C56.8845 58.0341 56.2981 57.8387 55.7116 57.8387C52.9748 57.8387 50.6289 59.9881 50.6289 62.9192H70.5687C70.5687 58.8157 67.2454 55.4939 63.1402 55.4939C60.7943 55.2985 58.8394 56.4709 57.471 58.2295Z" fill="white"/>
<path d="M30.8868 51C29.3228 49.6322 27.1725 48.8506 24.8266 48.8506C21.8943 48.8506 19.1574 50.2184 17.5935 52.3678C17.0071 52.1724 16.2251 51.977 15.4431 51.977C11.9243 51.977 9.1875 54.7127 9.1875 58.2299H34.4055C34.4055 56.4713 34.0146 54.9081 33.2326 53.5402C32.4507 52.5632 31.6687 51.7816 30.8868 51Z" fill="white"/>
<path d="M76.4381 78.7471C74.4832 78.7471 74.2877 79.9195 72.9193 80.3103C72.7238 80.3103 72.5283 80.3103 72.3328 80.3103C70.1824 80.3103 70.1825 78.7471 68.2276 78.7471C66.0772 78.7471 66.0772 80.3103 64.1223 80.3103C61.9719 80.3103 61.9719 78.7471 60.017 78.7471C57.8667 78.7471 57.8667 80.3103 55.9118 80.3103C53.7614 80.3103 53.7614 78.7471 51.8065 78.7471C49.6561 78.7471 49.6561 80.3103 47.7012 80.3103C45.5509 80.3103 45.5509 78.7471 43.596 78.7471C41.4456 78.7471 41.4456 80.3103 39.4907 80.3103C37.3403 80.3103 37.3403 78.7471 35.3855 78.7471C33.2351 78.7471 33.2351 80.3103 31.2802 80.3103C29.1298 80.3103 29.1298 78.7471 27.1749 78.7471C25.0246 78.7471 25.0246 80.3103 23.0697 80.3103C21.8967 80.3103 21.3103 79.7241 20.7238 79.3333C20.3328 78.9425 19.7464 78.7471 18.9644 78.7471C16.814 78.7471 16.814 80.3103 14.8591 80.3103C12.7088 80.3103 12.7088 78.7471 10.7539 78.7471C8.79899 78.7471 7.82155 80.3103 5.67117 80.3103C4.88922 80.3103 4.49824 80.1149 4.10726 79.9195C3.32531 79.5287 2.93433 78.7471 1.56591 78.7471C-0.584469 78.7471 -0.584469 83.4367 1.56591 83.4367C3.71628 83.4367 3.71628 84.9999 5.67117 84.9999C7.82155 84.9999 7.82155 83.4367 9.77643 83.4367C11.7313 83.4367 11.9268 84.9999 13.8817 84.9999C16.0321 84.9999 16.0321 83.4367 17.987 83.4367C20.1373 83.4367 20.1373 84.9999 22.0922 84.9999C24.2426 84.9999 24.2426 83.4367 26.1975 83.4367C28.3479 83.4367 28.3479 84.9999 30.3027 84.9999C32.4531 84.9999 32.4531 83.4367 34.408 83.4367C36.5584 83.4367 36.5584 84.9999 38.5133 84.9999C40.4682 84.9999 40.6637 83.4367 42.6185 83.4367C44.7689 83.4367 44.7689 84.9999 46.7238 84.9999C48.8742 84.9999 48.8742 83.4367 50.8291 83.4367C52.9794 83.4367 52.9794 84.9999 54.9343 84.9999C57.0847 84.9999 57.0847 83.4367 59.0396 83.4367C61.19 83.4367 61.19 84.9999 63.1449 84.9999C65.2952 84.9999 65.2952 83.4367 67.2501 83.4367C69.4005 83.4367 69.4005 84.9999 71.3554 84.9999C73.5058 84.9999 73.5058 83.4367 75.4606 83.4367C78.393 83.4367 78.393 78.7471 76.4381 78.7471Z" fill="#FFCFDA"/>
</g>
<defs>
<clipPath id="clip0">
<rect width="78" height="85" fill="white"/>
</clipPath>
</defs>
</svg>
