<svg width="72" height="83" viewBox="0 0 72 83" fill="none" xmlns="http://www.w3.org/2000/svg">
<g clip-path="url(#clip0)">
<path fill-rule="evenodd" clip-rule="evenodd" d="M12.9566 83.0002C12.9566 76.0002 12.9566 69.0002 12.9566 61.7502C-9.21643 42.7502 -0.247568 12.5002 19.4341 3.7502C44.8459 -7.2498 64.5275 7.5002 64.2784 29.0002C67.0189 36.7502 73.9947 48.0002 71.5033 50.7502C71.005 51.5002 68.0154 51.7502 64.5275 51.5002C63.2818 59.5002 64.7767 65.7502 60.7905 68.0002C57.8009 69.7502 54.0639 70.2502 49.0812 70.2502C49.0812 74.5002 49.0812 78.5002 49.0812 82.5002C36.8735 82.7502 24.9151 82.7502 12.9566 83.0002Z" fill="#FFF1CC"/>
<path fill-rule="evenodd" clip-rule="evenodd" d="M32.1176 13H35.8824C37.0588 13 38 13.9796 38 15.2041V22.7959C38 24.0204 37.0588 25 35.8824 25H32.1176C30.9412 25 30 24.0204 30 22.7959V15.2041C30 13.9796 30.9412 13 32.1176 13Z" fill="#FFAC69"/>
<path fill-rule="evenodd" clip-rule="evenodd" d="M46.8515 17.5567L49.4653 20.2784C50.1782 21.0206 50.1782 22.5052 49.4653 23.2474L44.2376 28.4433C43.2871 29.1856 42.099 29.1856 41.1485 28.4433L38.5347 25.7217C37.8218 24.732 37.8218 23.4948 38.5347 22.5052L43.7624 17.5567C44.7129 16.8144 45.901 16.8144 46.8515 17.5567Z" fill="#FFAC69"/>
<path fill-rule="evenodd" clip-rule="evenodd" d="M21.0439 17.7164L18.7024 20.3433C17.7659 21.2985 17.7659 22.4925 18.7024 23.4478L23.8537 28.4627C24.5561 29.1791 25.961 29.1791 26.8976 28.4627L29.4732 25.8358C30.1756 25.1194 30.1756 23.6866 29.4732 22.7313L24.0878 17.7164C23.1512 16.7612 21.9805 16.7612 21.0439 17.7164Z" fill="#FFAC69"/>
<path fill-rule="evenodd" clip-rule="evenodd" d="M14 35.3529V31.3824C14 30.0588 14.9796 29 16.2041 29H23.7959C25.0204 29 26 30.0588 26 31.3824V35.6176C26 36.9412 25.0204 38 23.7959 38H16.2041C14.9796 37.7353 14 36.6765 14 35.3529Z" fill="#FFAC69"/>
<path fill-rule="evenodd" clip-rule="evenodd" d="M42 35.3529V31.3824C42 30.0588 42.9796 29 44.2041 29H51.7959C53.0204 29 54 30.0588 54 31.3824V35.6176C54 36.9412 53.0204 38 51.7959 38H44.2041C42.9796 37.4706 42 36.4118 42 35.3529Z" fill="#FFAC69"/>
<path fill-rule="evenodd" clip-rule="evenodd" d="M32.1176 53H35.8824C37.0588 53 38 52.0204 38 50.7959V43.2041C38 41.9796 37.0588 41 35.8824 41H32.1176C30.9412 41 30 41.9796 30 43.2041V50.7959C30 52.2653 30.9412 53 32.1176 53Z" fill="#FFAC69"/>
<path fill-rule="evenodd" clip-rule="evenodd" d="M46.8515 48.2836L49.4653 45.6567C50.1782 44.9403 50.1782 43.5075 49.4653 42.5522L44.2376 37.5373C43.2871 36.8209 42.099 36.8209 41.1485 37.5373L38.5347 40.1642C37.8218 40.8806 37.8218 42.3134 38.5347 43.2687L43.7624 48.2836C44.7129 49.2388 45.901 49.2388 46.8515 48.2836Z" fill="#FFAC69"/>
<path fill-rule="evenodd" clip-rule="evenodd" d="M21.1485 48.3654L18.5347 45.7195C17.8218 44.7573 17.8218 43.5546 18.5347 42.5925L23.7624 37.5412C24.4752 36.8196 25.901 36.8196 26.8515 37.5412L29.4653 40.1871C30.1782 41.1493 30.1782 42.352 29.4653 43.3141L24.2376 48.3654C23.2871 49.3275 22.099 49.087 21.1485 48.3654Z" fill="#FFAC69"/>
<path fill-rule="evenodd" clip-rule="evenodd" d="M34.1237 45C40.8041 45 46 39.5567 46 33.1237C46 26.4433 40.5567 21 34.1237 21C27.4433 21 22 26.4433 22 33.1237C22 39.8041 27.4433 45 34.1237 45Z" fill="#FFAC69"/>
<path fill-rule="evenodd" clip-rule="evenodd" d="M34 39C37.36 39 40 36.36 40 33C40 29.64 37.36 27 34 27C30.64 27 28 29.64 28 33C28 36.36 30.64 39 34 39Z" fill="#FFF1CC"/>
</g>
<defs>
<clipPath id="clip0">
<rect width="72" height="83" fill="white"/>
</clipPath>
</defs>
</svg>
