<svg width="80" height="80" viewBox="0 0 80 80" fill="none" xmlns="http://www.w3.org/2000/svg">
<path d="M40 0C17.9135 0 0 17.9135 0 40C0 46.9211 1.75572 53.4351 4.86005 59.1094L0 80L20.8906 75.14C26.5649 78.2443 33.0789 80 40 80C62.0865 80 80 62.0865 80 40C80 17.9135 62.0865 0 40 0Z" fill="#82C42D"/>
<path fill-rule="evenodd" clip-rule="evenodd" d="M39.9513 0V79.9999C33.0484 79.9917 26.5516 78.237 20.8906 75.1399L0 80L4.86005 59.1094C1.75573 53.4351 0 46.9211 0 40C0 17.9297 17.8872 0.0262837 39.9513 0Z" fill="#8DCA3F"/>
<path d="M42.1119 49.0584H34.6565V45.038C34.6565 43.2823 34.86 41.9592 35.2926 41.1195C35.6997 40.2543 36.6158 39.1347 38.0407 37.7352L42.8499 32.9261C43.8677 31.8319 44.3766 30.4579 44.3766 28.8294C44.3766 27.2009 43.8422 25.8523 42.799 24.7836C41.7303 23.7149 40.3817 23.1551 38.7023 23.1551C37.0229 23.1551 35.6488 23.664 34.5038 24.7072C33.3842 25.7505 32.7226 27.1246 32.5445 28.8294H24.5547C24.9873 24.9108 26.514 21.8574 29.1348 19.6436C31.7557 17.4299 35.0127 16.3103 38.9313 16.3103C42.8499 16.3103 46.0305 17.379 48.4987 19.5164C50.9669 21.6538 52.1883 24.6309 52.1883 28.4477C52.1883 31.094 51.4758 33.2823 50.0254 35.038C49.1857 36.0813 48.5496 36.8447 48.117 37.2772C47.6845 37.7098 47.0992 38.2696 46.3613 38.9566C45.6234 39.6436 45.0127 40.2289 44.5038 40.7378C43.9949 41.2467 43.5878 41.6793 43.2824 42.0355C42.4936 43.0024 42.0865 44.3765 42.0865 46.1322V49.0584H42.1119ZM38.5242 63.7149C37.1501 63.7149 35.9542 63.2314 34.9364 62.2899C33.9186 61.3485 33.4096 60.2034 33.4096 58.8548C33.4096 57.5062 33.8931 56.3612 34.8855 55.3943C35.8778 54.4274 37.0738 53.9439 38.4478 53.9439C39.8219 53.9439 41.0178 54.4274 42.0356 55.3688C43.0534 56.3103 43.5369 57.4553 43.5369 58.8039C43.5369 60.1525 43.0534 61.2976 42.061 62.2645C41.0941 63.2314 39.8982 63.7149 38.5242 63.7149Z" fill="white"/>
<path fill-rule="evenodd" clip-rule="evenodd" d="M39.9453 23.2677V16.335C43.402 16.5061 46.2465 17.5665 48.4981 19.5164C50.9663 21.6538 52.1877 24.6309 52.1877 28.4477C52.1877 31.094 51.4752 33.2823 50.0249 35.038C49.1852 36.0813 48.549 36.8446 48.1165 37.2772C47.6839 37.7098 47.0986 38.2696 46.3607 38.9566C45.6228 39.6436 45.0121 40.2288 44.5032 40.7378C43.9943 41.2467 43.5872 41.6792 43.2819 42.0355C42.493 43.0024 42.0859 44.3764 42.0859 46.1322V49.0584H39.9453V35.83L42.8493 32.926C43.8671 31.8319 44.376 30.4579 44.376 28.8294C44.376 27.2009 43.8416 25.8523 42.7984 24.7836C42.0075 23.9927 41.0634 23.4805 39.9453 23.2677ZM39.9453 63.5242V54.1545C40.7098 54.3806 41.4064 54.7873 42.035 55.3688C43.0528 56.3103 43.5363 57.4553 43.5363 58.8039C43.5363 60.1525 43.0528 61.2976 42.0605 62.2645C41.4441 62.8809 40.7346 63.3008 39.9453 63.5242Z" fill="#CDFF8D"/>
</svg>
