<svg width="96" height="99" viewBox="0 0 96 99" fill="none" xmlns="http://www.w3.org/2000/svg">
<path d="M52.7509 74.1642L9.48828 94.1353L11.2422 97.9331L54.5049 77.9621L52.7509 74.1642Z" fill="#BF5CAA"/>
<path d="M40.4809 72.9761L38.7266 76.7739L81.9892 96.7497L83.7436 92.9519L40.4809 72.9761Z" fill="#BF5CAA"/>
<path d="M96 74.5988C96 78.5495 92.9782 81.5706 89.0266 81.5706H6.97337C3.02179 81.5706 0 78.5495 0 74.5988C0 70.6481 3.02179 67.627 6.97337 67.627H89.0266C92.9782 67.627 96 70.8805 96 74.5988Z" fill="#9E3071"/>
<path d="M96 74.5988H0C0 70.6481 3.02179 67.627 6.97337 67.627H89.0266C92.9782 67.627 96 70.8805 96 74.5988Z" fill="#DB75C0"/>
<path d="M16.5027 81.5703H9.29688V98.9999H16.5027V81.5703Z" fill="#AF4589"/>
<path d="M86.0027 81.5703H78.7969V98.9999H86.0027V81.5703Z" fill="#AF4589"/>
<path d="M75.5409 58.0984C72.2867 55.3097 57.6426 43.9224 57.6426 43.9224H38.5821C38.5821 43.9224 23.938 55.5421 20.6838 58.0984C17.4296 60.8872 17.8944 67.859 23.7056 67.859C28.5869 67.859 38.1172 67.859 44.6257 67.859C48.5773 67.859 51.5991 67.859 51.5991 67.859C58.1075 67.859 67.6378 67.859 72.5192 67.859C78.5627 67.6266 79.0276 60.6548 75.5409 58.0984Z" fill="#FFDCF8"/>
<path d="M66.2459 59.2605C66.2459 60.4224 65.3161 61.5844 63.9215 61.5844H31.844C30.6818 61.5844 29.5195 60.6548 29.5195 59.2605C29.5195 58.0985 30.4493 56.9365 31.844 56.9365H63.9215C65.3161 56.9365 66.2459 57.8661 66.2459 59.2605Z" fill="#BF5CAA"/>
<path d="M50.438 61.3521H45.7891V67.6267H50.438V61.3521Z" fill="#BF5CAA"/>
<path d="M61.366 48.8028C61.366 56.2394 55.3224 62.0493 48.1166 62.0493C40.6783 62.0493 34.8672 56.007 34.8672 48.8028C34.8672 41.3662 40.9108 35.5563 48.1166 35.5563C55.3224 35.3239 61.366 41.3662 61.366 48.8028Z" fill="white"/>
<path d="M61.366 48.8027C61.366 56.2394 55.3224 62.0492 48.1166 62.0492C40.6783 62.0492 34.8672 56.007 34.8672 48.8027C34.8672 48.8027 40.9108 56.7041 48.1166 56.7041C55.3224 56.7041 61.366 48.8027 61.366 48.8027Z" fill="#FFBBED"/>
<path d="M50.9066 21.8451C50.9066 22.7746 50.2093 23.4718 49.2795 23.4718C48.3497 23.4718 47.6523 22.7746 47.6523 21.8451V1.62676C47.6523 0.697183 48.3497 0 49.2795 0C50.2093 0 50.9066 0.697183 50.9066 1.62676V21.8451Z" fill="#CE5DA6"/>
<path d="M63.6863 25.7956C63.4538 26.7252 62.2916 27.19 61.5943 26.7252C60.4321 26.4928 59.9672 25.5632 60.4321 24.6336L67.4054 5.80967C67.6379 4.88009 68.8001 4.4153 69.4974 4.88009C70.4272 5.11249 70.8921 6.27446 70.4272 6.97164L63.6863 25.7956Z" fill="#CE5DA6"/>
<path d="M34.8659 25.7956C35.0983 26.7252 36.2605 27.19 36.9579 26.7252C37.8877 26.4928 38.3525 25.3308 37.8877 24.6336L30.9143 5.80967C30.6818 4.88009 29.5196 4.4153 28.8223 4.88009C28.1249 5.11249 27.6601 6.04206 27.8925 6.97164L34.8659 25.7956Z" fill="#CE5DA6"/>
<path d="M24.8682 36.2534C25.5656 36.9505 26.7278 36.9505 27.1927 36.2534C27.89 35.5562 27.89 34.3942 27.1927 33.9294L12.7811 19.7534C12.0837 19.0562 10.9215 19.0562 10.4566 19.7534C9.75926 20.4505 9.75926 21.6125 10.4566 22.0773L24.8682 36.2534Z" fill="#CE5DA6"/>
<path d="M71.8279 36.2534C71.1306 36.9505 69.9684 36.9505 69.5035 36.2534C68.8061 35.5562 68.8061 34.3942 69.5035 33.9294L83.6827 19.7534C84.38 19.0562 85.5422 19.0562 86.0071 19.7534C86.7044 20.4505 86.7044 21.6125 86.0071 22.0773L71.8279 36.2534Z" fill="#CE5DA6"/>
</svg>
