<svg width="30" height="30" viewBox="0 0 30 30" fill="none" xmlns="http://www.w3.org/2000/svg">
<g clip-path="url(#clip0)">
<path d="M11.8958 6.52776L15.5165 7.3611L18.546 4.93054V8.74999L21.8712 10.8333L18.546 12.2222L17.1421 16.25L14.9254 12.7778L10.418 12.9167L13.152 9.65276L11.8958 6.52776Z" fill="#BA8204"/>
<path d="M23.6451 11.1111L26.0097 11.9444L28.3003 10.625L27.9309 13.1944L29.9998 14.8611L27.6353 15.5556L26.3052 18.125L25.123 15.5556L22.0195 15.2778L24.2363 13.3333L23.6451 11.1111Z" fill="white"/>
<path d="M1.18227 8.95832L3.62069 9.65276L5.83744 8.05554L5.68966 10.6944L7.9064 12.2222L5.61576 13.0555L4.50739 15.7639L3.10345 13.3333H0L1.99507 11.1111L1.18227 8.95832Z" fill="white"/>
<path d="M9.45703 1.66667H11.3782L12.5605 0L13.1516 1.94444L15.1467 2.5L13.6689 3.68056L13.595 5.90278L11.8955 4.44444L9.67871 5.13889L10.5654 3.125L9.45703 1.66667Z" fill="white"/>
<path d="M19.7305 5.76397L21.43 4.93064L21.6516 2.91675L23.1295 4.44453L25.1984 4.0973L24.4595 5.76397L25.4201 7.77786L23.2773 7.15286L21.5778 8.75008L21.43 6.52786L19.7305 5.76397Z" fill="#BA8204"/>
<path d="M0.148438 20.2083L1.55238 18.9583L1.10903 16.9445L2.95632 17.9861L4.8775 17.0833L4.65583 18.8889L6.28144 20.4861L3.9908 20.5556L2.88243 22.5695L1.99573 20.4861L0.148438 20.2083Z" fill="#BA8204"/>
<path d="M4.94889 6.45833L5.61392 5.20833L4.875 3.88889L6.42672 4.16667L7.5351 3.125L7.90456 4.44444L9.38239 5.27778L7.83067 5.83333L7.5351 7.5L6.35283 6.18056L4.94889 6.45833Z" fill="#BA8204"/>
<path d="M10.5676 9.02778C10.5676 9.86111 9.82872 10.5556 8.94202 10.5556C8.05532 10.5556 7.31641 9.86111 7.31641 9.02778C7.31641 8.19444 8.05532 7.5 8.94202 7.5C9.82872 7.56944 10.5676 8.19444 10.5676 9.02778Z" fill="#F2BE16"/>
<path d="M13.3001 15.6944C13.3001 16.3889 12.7089 17.0139 11.8961 17.0139C11.1572 17.0139 10.4922 16.4583 10.4922 15.6944C10.4922 15 11.0833 14.375 11.8961 14.375C12.7089 14.375 13.3001 14.9306 13.3001 15.6944Z" fill="#F2BE16"/>
<path d="M21.3541 14.1667C21.3541 14.7222 20.9108 15.1389 20.3196 15.1389C19.7285 15.1389 19.2852 14.7222 19.2852 14.1667C19.2852 13.6111 19.7285 13.1945 20.3196 13.1945C20.9108 13.1945 21.3541 13.6111 21.3541 14.1667Z" fill="#F2BE16"/>
<path d="M26.5286 20.7639C26.5286 21.5972 25.7897 22.2916 24.903 22.2916C24.0163 22.2916 23.2773 21.5972 23.2773 20.7639C23.2773 19.9305 24.0163 19.2361 24.903 19.2361C25.7897 19.2361 26.5286 19.9305 26.5286 20.7639Z" fill="#BA8204"/>
<path d="M19.2135 3.05564C19.2135 3.81953 18.5485 4.44453 17.7356 4.44453C16.9228 4.44453 16.2578 3.81953 16.2578 3.05564C16.2578 2.29175 16.9228 1.66675 17.7356 1.66675C18.5485 1.66675 19.2135 2.29175 19.2135 3.05564Z" fill="#F2BE16"/>
<path d="M5.83984 21.4583C5.83984 21.4583 6.50487 20.3472 7.16989 20.7639C7.83492 21.1111 11.9729 23.125 13.3768 30C10.1995 24.9306 9.53443 24.0972 5.83984 21.4583Z" fill="#BA8204"/>
<path d="M6.27977 15.7638C5.76253 14.5833 7.90539 14.5833 7.90539 14.5833C7.90539 14.5833 14.2601 20.7638 14.2601 29.9305C11.3044 19.236 6.79702 16.9444 6.27977 15.7638Z" fill="white"/>
<path d="M14.2617 16.25C14.2617 16.25 15.6657 15.2777 16.1829 16.25C16.7001 17.2222 15.7396 29.9305 15.7396 29.9305L14.2617 16.25Z" fill="#F2BE16"/>
<path d="M22.61 16.25C22.61 16.25 24.0879 16.875 23.2751 17.5694C22.4623 18.2639 18.6938 20.2778 16.9943 30C16.0337 19.1667 22.61 16.25 22.61 16.25Z" fill="white"/>
<path d="M21.8732 21.25C23.4249 21.4583 22.6121 22.5 22.6121 22.5C22.6121 22.5 19.5826 24.1667 18.4003 29.8611C18.4003 29.9306 17.4397 24.375 21.8732 21.25Z" fill="#BA8204"/>
<path d="M26.233 9.58331C26.233 10.1389 25.7897 10.5555 25.1985 10.5555C24.6074 10.5555 24.1641 10.1389 24.1641 9.58331C24.1641 9.02775 24.6074 8.61108 25.1985 8.61108C25.7897 8.61108 26.233 9.02775 26.233 9.58331Z" fill="#F2BE16"/>
</g>
<defs>
<clipPath id="clip0">
<rect width="30" height="30" fill="white"/>
</clipPath>
</defs>
</svg>
