<svg width="80" height="80" viewBox="0 0 80 80" fill="none" xmlns="http://www.w3.org/2000/svg">
<path fill-rule="evenodd" clip-rule="evenodd" d="M40 80C61.978 80 80 61.978 80 40C80 18.022 61.978 0 40 0C18.022 0 0 18.022 0 40C0 62.1978 18.022 80 40 80Z" fill="white"/>
<path fill-rule="evenodd" clip-rule="evenodd" d="M17.5817 59.9999C23.5158 59.9999 28.351 55.1647 28.351 49.2307C28.351 43.2966 23.5158 38.4614 17.5817 38.4614C11.6477 38.4614 6.8125 43.2966 6.8125 49.2307C6.8125 55.1647 11.6477 59.9999 17.5817 59.9999Z" fill="#D1F4FF"/>
<path fill-rule="evenodd" clip-rule="evenodd" d="M62.4177 59.9999C68.3517 59.9999 73.1869 55.1647 73.1869 49.2307C73.1869 43.2966 68.3517 38.4614 62.4177 38.4614C56.4836 38.4614 51.6484 43.2966 51.6484 49.2307C51.6484 55.1647 56.4836 59.9999 62.4177 59.9999Z" fill="#D1F4FF"/>
<path fill-rule="evenodd" clip-rule="evenodd" d="M26.372 25.9341C28.5698 25.9341 30.5478 26.8132 32.0863 28.3517C33.6247 29.8901 34.5039 31.8681 34.5039 34.066C34.5039 34.2857 34.5039 34.5055 34.5039 34.7253C34.5039 34.9451 34.5039 35.1649 34.5039 35.3846C34.5039 35.8242 33.8445 36.2638 33.405 36.044C33.1852 36.044 32.9654 35.8242 32.9654 35.8242C32.3061 35.1649 31.4269 34.5055 30.328 34.066C29.2291 33.6264 28.1302 33.4066 27.0313 33.4066C25.7127 33.4066 24.394 33.6264 23.2951 34.066C22.1962 34.5055 21.317 35.3846 20.6577 36.044C20.2181 36.4835 19.7786 36.4835 19.339 36.2638C19.1192 36.044 19.1192 35.8242 18.8995 35.6044C18.8995 35.3846 18.6797 34.9451 18.6797 34.7253C18.6797 34.5055 18.6797 34.066 18.6797 33.8462C18.6797 31.6484 19.5588 29.6703 21.0973 28.1319C22.1962 26.8132 24.1742 25.9341 26.372 25.9341Z" fill="#2E799E"/>
<path fill-rule="evenodd" clip-rule="evenodd" d="M54.7256 25.4946C56.9234 25.4946 58.9014 26.3737 60.4399 27.9122C61.9784 29.2309 62.8575 31.4287 62.8575 33.6265C62.8575 33.8463 62.8575 34.0661 62.8575 34.2858C62.8575 34.5056 62.8575 34.7254 62.8575 34.9452C62.8575 35.3847 62.1981 35.8243 61.7586 35.6045C61.5388 35.6045 61.319 35.3847 61.319 35.3847C60.6597 34.7254 59.7806 34.0661 58.6817 33.6265C57.1432 33.1869 56.0443 32.9672 54.9454 32.9672C53.6267 32.9672 52.308 33.1869 51.2091 33.6265C50.1102 34.0661 49.2311 34.9452 48.5718 35.6045C48.352 36.0441 47.6926 36.0441 47.2531 35.8243C47.0333 35.6045 47.0333 35.3847 46.8135 35.165C46.8135 34.9452 46.5938 34.5056 46.5938 34.2858C46.5938 33.8463 46.5938 33.6265 46.5938 33.1869C46.5938 30.9891 47.4729 29.0111 49.0113 27.4726C50.33 26.3737 52.308 25.4946 54.7256 25.4946Z" fill="#2E799E"/>
<path fill-rule="evenodd" clip-rule="evenodd" d="M23.5154 52.088C35.6033 57.5825 45.7132 57.5825 57.5813 52.088C60.878 50.5496 61.7572 54.066 59.1198 56.4836C47.2517 65.4946 34.0648 66.1539 21.9769 56.4836C19.3396 54.066 20.2187 50.7693 23.5154 52.088Z" fill="#2E799E"/>
<path fill-rule="evenodd" clip-rule="evenodd" d="M31.6484 61.978C37.3627 57.8022 43.2968 57.5824 49.2309 61.978C43.5166 64.1758 37.5825 64.1758 31.6484 61.978Z" fill="#43AECC"/>
</svg>
