<svg width="80" height="88" viewBox="0 0 80 88" fill="none" xmlns="http://www.w3.org/2000/svg">
<g clip-path="url(#clip0)">
<path d="M53.8551 62.202V51.5801H26.1602V62.202L39.9989 74.3535L53.8551 62.202Z" fill="#FFF1CC"/>
<path d="M75.2592 67.1689L56.2266 62.7518C55.9477 62.683 55.6688 62.5799 55.4248 62.4424L40 71.3111L25.1852 62.0127C24.8017 62.3736 24.3311 62.6314 23.7908 62.7518L4.74074 67.1689C1.95207 67.8221 0 70.2627 0 73.0814V84.958C0 86.6424 1.37691 88.0002 3.08497 88.0002H76.9324C78.6405 88.0002 80.0174 86.6424 80.0174 84.958V73.0814C80 70.2627 78.0305 67.8221 75.2592 67.1689Z" fill="#FD9235"/>
<path d="M20.0078 16.6895L21.3499 45.7707C21.4719 48.4863 22.8313 51.0129 25.0274 52.6457L31.3891 57.3551C32.9926 58.541 34.9272 59.1769 36.9315 59.1769H43.0841C45.0884 59.1769 47.023 58.541 48.6265 57.3551L54.9882 52.6457C57.2017 51.0129 58.5437 48.4863 58.6657 45.7707L60.0078 16.6895C60.0078 16.6895 20.0078 16.6895 20.0078 16.6895Z" fill="#FFF1CC"/>
<path d="M11.2941 78.1518L1.32462 69.3174C0.488017 70.3658 0 71.6721 0 73.0814V84.958C0 86.6424 1.37691 88.0002 3.08497 88.0002H13.8562V83.7893C13.8388 81.6408 12.915 79.5955 11.2941 78.1518Z" fill="#FD9235"/>
<path d="M68.7066 78.1518L78.6761 69.3174C79.5127 70.3658 80.0007 71.6721 80.0007 73.0814V84.958C80.0007 86.6424 78.6238 88.0002 76.9158 88.0002H66.1445V83.7893C66.162 81.6408 67.0857 79.5955 68.7066 78.1518Z" fill="#FD9235"/>
<path d="M43.8521 88.0004H36.1484L37.1245 74.3535H42.8935L43.8521 88.0004Z" fill="#FFAC69"/>
<path d="M43.8503 71.3105H36.1641V74.1637C36.1641 75.109 36.9309 75.8652 37.8896 75.8652H42.1423C43.1009 75.8652 43.8678 75.109 43.8678 74.1637L43.8503 71.3105Z" fill="#FFAC69"/>
<path d="M25.9351 58.8325L40.0005 71.3107C40.0005 71.3107 36.0615 73.27 31.1987 77.2232C30.1879 78.031 28.6715 77.7044 28.1486 76.5357L21.543 62.2013L23.6345 59.1075C24.1573 58.3513 25.238 58.2138 25.9351 58.8325Z" fill="#E7822A"/>
<path d="M54.0654 58.8325L40 71.3107C40 71.3107 43.939 73.27 48.8017 77.2232C49.8126 78.031 51.329 77.7044 51.8519 76.5357L58.4575 62.2013L56.366 59.1075C55.8606 58.3513 54.7625 58.2138 54.0654 58.8325Z" fill="#E7822A"/>
<path d="M49.3242 6.63445L50.7708 16.6891C57.3591 17.9954 58.3002 28.1704 58.4397 31.0923C58.4571 31.6251 58.6314 32.1235 58.9277 32.5704L61.4375 36.4204C61.4375 36.4204 60.5835 30.061 64.5225 25.7985C64.5225 25.7985 65.8645 0.567259 49.3242 6.63445Z" fill="#F5974C"/>
<path d="M62.9905 35.7674L61.2476 42.6252C61.0384 43.433 60.3064 44.0002 59.4524 44.0002C58.5112 44.0002 57.7269 43.3127 57.6223 42.4018L56.7334 35.3893C56.4894 33.5158 57.9709 31.8486 59.8881 31.8486C61.9622 31.8658 63.4785 33.7908 62.9905 35.7674Z" fill="#FFF1CC"/>
<path d="M21.4742 3.91863L23.7574 5.44832C13.4742 12.9421 15.3914 25.7811 15.3914 25.7811C18.4764 28.8233 18.4764 36.403 18.4764 36.403L21.5614 33.3608C21.5614 33.3608 20.3762 24.5952 26.1801 21.2264C31.5657 18.0983 36.2716 19.7139 41.0821 19.7139C53.9622 19.7139 57.5701 14.9186 56.9426 9.09207C56.6115 6.06707 51.9404 -0.206368 40.0189 -0.0173052C35.191 0.0858198 26.1627 1.52957 21.4742 3.91863Z" fill="#FFAC69"/>
<path d="M17.0275 35.7674L18.7704 42.6252C18.9796 43.433 19.7116 44.0002 20.5656 44.0002C21.5068 44.0002 22.2911 43.3127 22.3957 42.4018L23.2846 35.3893C23.5286 33.5158 22.0471 31.8486 20.1299 31.8486C18.0384 31.8658 16.522 33.7908 17.0275 35.7674Z" fill="#FFF1CC"/>
</g>
<defs>
<clipPath id="clip0">
<rect width="80" height="88" fill="white"/>
</clipPath>
</defs>
</svg>
